<svg width="73" height="59" viewBox="0 0 73 59" fill="none" xmlns="http://www.w3.org/2000/svg">
    <mask id="mask0_0_1" style="mask-type:alpha" maskUnits="userSpaceOnUse" x="-260" y="0"
        width="334" height="515">
        <rect x="-260" width="334" height="515" rx="5" fill="white" />
    </mask>
    <g mask="url(#mask0_0_1)">
        <path
            d="M63.3554 -3.72582C61.4251 -6.50028 58.9987 -8.89409 56.1984 -10.7866C52.388 -13.2217 47.8573 -14.2549 43.384 -14.917C34.12 -16.2883 27.1905 -15.5927 16.2298 -9.05876C5.2691 -2.52478 0.725365 8.53911 0.44789 20.0298C0.170414 31.5204 4.97598 42.8137 12.4892 51.5156C14.8227 54.2179 17.5304 56.7721 20.9092 57.9315C23.1875 58.6221 25.5725 58.8919 27.9475 58.7277C40.4168 58.2974 52.4484 52.7173 61.6021 44.2368C66.4641 39.7323 70.7039 34.1448 71.8688 27.6206C72.2117 25.526 72.3198 23.3997 72.1911 21.2811C71.7491 12.2619 68.6777 3.56908 63.3554 -3.72582Z"
            fill="#43B7E9" />
    </g>
</svg>
    