<svg width="85" height="93" viewBox="0 0 85 93" fill="none" xmlns="http://www.w3.org/2000/svg">
    <path d="M94.7881 60.842C90.3576 48.506 88.9338 37.8262 87.4008 24.8345C87.1943 23.0637 87.0362 21.1545 85.9066 19.791C85.0359 18.7665 83.7275 18.2487 82.4719 17.7685C70.4972 13.1793 50.679 5.23585 38.7075 0.654993C23.2268 7.49853 18.3591 19.2599 2.87849 26.1034C2.28848 26.3042 1.7639 26.6605 1.36033 27.1347C0.851927 27.8604 0.977409 28.8358 1.12144 29.7082L5.98239 58.9067C7.06026 65.323 5.0125 68.6441 10.0468 72.7981C12.4018 74.7397 15.3037 75.8545 18.1685 76.897L57.4629 91.5302C58.5354 92.0137 59.6932 92.2803 60.8695 92.3146C62.3847 92.2497 63.7494 91.435 65.0378 90.6348C77.5797 82.8201 82.5285 73.8664 93.9533 64.5057C94.4013 64.195 94.7689 63.7825 95.0258 63.3022C95.2602 62.4815 95.1753 61.6028 94.7881 60.842ZM80.5703 64.5273C74.8147 69.9925 68.9833 75.3679 63.076 80.6535C61.7056 81.8834 60.2316 83.1574 58.4502 83.5344C56.4173 83.9586 54.3732 83.1384 52.475 82.3349L21.4821 69.1726C20.2977 68.7814 19.2339 68.0928 18.3929 67.173C17.3396 65.795 17.3831 63.8718 16.9573 62.1697C16.4754 60.143 12.6708 48.9723 11.9084 43.6515C11.5117 40.925 8.45503 35.8345 9.64311 33.353C11.4967 29.3946 15.9011 27.5006 19.8431 25.7193C26.637 22.656 34.4697 13.681 38.2091 13.1386C41.9486 12.5963 55.822 21.1921 64.5455 22.4696C66.7682 22.7851 69.0391 23.0248 70.8033 24.3112C73.035 25.9537 73.8979 28.8686 74.6221 31.596L82.1943 59.7626C82.4049 60.3835 82.4908 61.0396 82.4473 61.6935C82.3149 62.8387 81.4344 63.7245 80.604 64.5145L80.5703 64.5273Z" fill="#21B14B"/>
    </svg>
    