<svg width="68" height="66" viewBox="0 0 68 66" fill="none" xmlns="http://www.w3.org/2000/svg">
	<path d="M45.7007 27.6332C45.5349 24.4974 44.7893 21.4193 43.5016 18.5541C41.6793 14.7638 38.6027 11.7306 35.3866 9.02178C28.7274 3.39305 22.9045 0.550355 11.0211 0.339213C-0.862218 0.128071 -9.87539 6.64772 -15.7396 15.5826C-21.6039 24.5175 -23.3332 35.7905 -21.6555 46.3372C-21.1393 49.6125 -20.2462 52.9547 -18.14 55.5245C-16.68 57.1822 -14.931 58.5623 -12.9779 59.598C-2.89612 65.3606 9.36407 66.8438 20.7673 64.6293C26.8226 63.45 32.9243 61.1172 37.0437 56.5339C38.3444 55.0497 39.4734 53.4241 40.4094 51.6879C44.488 44.3564 46.3273 35.9947 45.7007 27.6332Z" fill="#EBBD1D"/>
	<path d="M67.0006 22.9279C67.4377 23.8868 67.545 24.9632 67.3059 25.9896C66.9076 28.1631 65.9282 30.007 64.9642 31.8316C60.8813 39.5165 56.7903 47.1813 52.3227 54.5702C51.7698 55.4693 51.1505 56.4195 50.0897 56.6191C49.0288 56.8188 48.3755 56.87 47.3491 55.4529C46.3228 54.0357 35.4383 38.9462 29.4832 30.6908C28.9766 30.0599 28.5688 29.3559 28.2739 28.6028C28.1094 28.0611 28.0645 27.4901 28.1423 26.9293C28.2201 26.3684 28.4189 25.8309 28.7248 25.3539C30.3083 22.6771 33.4631 21.6954 36.5414 21.0108C44.9272 19.1305 53.591 18.8369 62.0832 20.1451C63.8709 20.4191 66.0601 21.0744 67.0006 22.9279ZM55.2975 23.5562C53.0234 23.1969 50.737 23.7648 48.4886 24.2205C45.3981 24.8424 42.2667 25.2404 39.1189 25.4115C37.339 25.5091 35.2107 25.7435 34.4196 27.3515C33.6641 28.898 34.6989 30.6826 35.7046 32.0779C39.5816 37.4468 47.1663 46.378 47.9815 47.6937C48.7968 49.0094 49.6645 48.585 50.1212 48.4023C50.5625 48.176 50.931 47.83 51.1842 47.4041C54.8056 42.3588 57.6313 36.7901 59.5627 30.8917C59.8835 29.8886 60.1907 28.8582 60.0743 27.8188C59.8153 25.5448 57.5617 23.927 55.2975 23.5562Z" fill="#7C2982"/>
	</svg>
	