<svg width="52" height="93" viewBox="0 0 52 93" fill="none" xmlns="http://www.w3.org/2000/svg">
    <mask id="mask0_0_1" style="mask-type:alpha" maskUnits="userSpaceOnUse" x="0" y="-422"
        width="334" height="515">
        <rect y="-422" width="334" height="515" rx="5" fill="white" />
    </mask>
    <g mask="url(#mask0_0_1)">
        <path
            d="M26.942 6.19049C20.4878 9.48244 14.7197 11.0084 7.68584 12.7522C6.72932 12.9899 5.68485 13.1924 5.01987 13.9204C4.5177 14.4695 4.32361 15.2246 4.1461 15.947C2.45815 22.8319 -0.52791 34.2504 -2.21577 41.1349C2.62029 49.1458 9.41796 50.9975 14.2546 59.0087C14.4058 59.3178 14.6376 59.5803 14.9256 59.7687C15.3584 59.9975 15.8881 59.8618 16.3581 59.7212L32.0597 55.0225C35.5181 53.9881 37.4765 54.8794 39.4089 51.831C40.3111 50.4082 40.7109 48.7335 41.0974 47.0934L46.4066 24.5294C46.5961 23.9079 46.661 23.255 46.5977 22.6083C46.4594 21.7821 45.916 21.089 45.3865 20.4398C40.2215 14.107 34.9617 12.0173 29.0247 6.40179C28.8228 6.17916 28.5713 6.00715 28.2906 5.89962C27.8383 5.76448 27.3631 5.97577 26.942 6.19049ZM29.9598 13.7181C33.3603 16.4921 36.718 19.3152 40.0332 22.1872C40.8048 22.8554 41.6059 23.5723 41.9351 24.5241C42.3116 25.6114 42.0019 26.7886 41.6909 27.885L36.6129 45.7915C36.4261 46.452 36.2211 47.1428 35.7289 47.6264C35.0445 48.2998 33.9861 48.4104 33.0811 48.7618C31.9965 49.1843 26.1273 52.0292 23.2571 52.8192C21.7873 53.2239 19.2223 55.2481 17.7601 54.7778C15.4545 54.0367 14.108 51.7534 12.8572 49.7141C10.703 46.2034 5.22711 42.5319 4.66861 40.5211C4.1101 38.5104 7.87132 30.3035 7.96646 25.4312C7.99089 24.2208 7.96803 22.9472 8.55709 21.89C9.30382 20.5513 10.8464 19.8745 12.2859 19.2855C17.2703 17.2463 22.2547 15.207 27.239 13.1675C27.5664 13.0081 27.922 12.9147 28.2855 12.8926C28.9206 12.8964 29.469 13.3176 29.9598 13.7181Z"
            fill="#21B14B" />
        <path
            d="M49.2104 53.093C49.1537 52.024 48.8999 50.9748 48.4619 49.998C47.8423 48.706 46.7949 47.6717 45.7008 46.7468C43.4352 44.8313 41.4535 43.8622 37.4115 43.7913C33.3694 43.7204 30.2992 45.9416 28.307 48.9896C26.3148 52.0377 25.7228 55.8802 26.2937 59.4763C26.471 60.5935 26.7745 61.7335 27.49 62.6094C27.9882 63.1758 28.5853 63.6466 29.2523 63.9989C32.6817 65.9646 36.8544 66.4706 40.7333 65.7152C42.7943 65.3141 44.8688 64.5172 46.2714 62.955C46.7133 62.4484 47.0973 61.8941 47.4162 61.3024C48.8026 58.7996 49.4263 55.9459 49.2104 53.093Z"
            fill="#7C2982" />
        <path
            d="M24.5636 103.264C25.5017 103.061 26.3457 102.551 26.9626 101.816C28.3297 100.346 29.1433 98.6312 29.9418 96.9388C33.3158 89.7859 36.6911 82.6297 39.6507 75.3714C40.0139 74.4804 40.3697 73.5114 39.9395 72.6309C39.5093 71.7505 39.1923 71.2495 37.5998 71.2771C36.0072 71.3047 19.0897 71.5978 9.8343 71.7582C9.09856 71.7337 8.36333 71.82 7.65325 72.0142C7.16878 72.1896 6.72812 72.468 6.36164 72.8302C5.99516 73.1924 5.71158 73.6297 5.53045 74.1121C4.43864 76.7199 5.43549 79.5564 6.61152 82.1607C9.79773 89.2829 14.2922 95.7441 19.8616 101.209C21.0333 102.353 22.7012 103.587 24.5636 103.264Z"
            fill="#EBBD1D" />
    </g>
</svg>
    