<svg width="35" height="33" viewBox="0 0 35 33" fill="none" xmlns="http://www.w3.org/2000/svg">
    <path
        d="M33.7687 20.7372C32.7068 16.0392 31.6452 11.3423 30.5838 6.64655C30.214 5.00906 29.7193 3.18167 28.3875 2.3332C27.3694 1.68441 26.1379 1.80078 25.0008 1.94663C18.2788 2.80591 11.6064 3.95982 4.98361 5.40837C3.88544 5.64869 2.72523 5.93377 1.94985 6.80562C1.17447 7.67746 1.24489 7.76175 1.7914 10.2245C2.33791 12.6873 3.50158 17.7642 4.24325 22.2058C4.46144 24.0416 4.90884 25.8429 5.57502 27.5674C6.31922 29.2479 7.61692 30.7574 9.24548 31.1803C10.3336 31.3806 11.4531 31.3293 12.5183 31.0303L30.6859 27.3659C31.6365 27.1744 32.6429 26.9515 33.3252 26.2143C34.5403 24.8971 34.1982 22.6286 33.7687 20.7372ZM31.1029 23.1285C31.0609 23.3546 30.9602 23.5656 30.8108 23.7404C30.6183 23.9023 30.3829 24.0047 30.1332 24.035C23.9182 25.3891 18.5906 26.3814 12.3103 27.3969C11.3035 27.6137 10.2682 27.6663 9.24456 27.5529C8.85914 27.5205 8.49993 27.3446 8.23796 27.0601C8.06379 26.8014 7.94676 26.5087 7.89467 26.2012C7.07827 22.8433 6.93237 19.6074 6.11482 16.2497C5.73983 14.7081 5.43121 13.2372 5.15902 11.5817C5.03386 10.9895 5.05661 10.3756 5.22525 9.79424C5.61025 8.69378 6.11007 8.15132 7.15584 7.89856C9.30668 7.37824 12.1048 6.67345 14.3324 6.38549C16.56 6.09753 20.8124 5.49317 24.0075 4.99701C24.4846 4.87405 24.9878 4.90038 25.4495 5.07244C25.7642 5.25156 26.0383 5.49397 26.2546 5.78435C29.1897 9.28031 29.5388 14.2179 30.711 18.7585C31.0823 20.1965 31.4552 21.7223 31.1029 23.1285Z"
        fill="#E62E2E" />
</svg>
    