<svg width="41" height="41" viewBox="0 0 41 41" fill="none" xmlns="http://www.w3.org/2000/svg">
    <path d="M39.0153 1.52703C38.1301 0.884255 37.0563 0.553869 35.9628 0.587791C33.675 0.541535 31.5994 1.15232 29.5543 1.75892C20.9106 4.3224 12.2636 6.88694 3.84507 9.88247C2.81136 10.2504 1.71566 10.6856 1.29585 11.7182C0.876042 12.7507 0.688561 13.4026 1.92155 14.7358L23.4155 37.9759C23.9534 38.6199 24.5851 39.1794 25.2895 39.6357C25.8063 39.9144 26.3774 40.0777 26.9634 40.1144C27.5494 40.151 28.1364 40.0601 28.6839 39.848C31.73 38.796 33.3846 35.7944 34.7058 32.817C38.342 24.6992 40.4225 15.9712 40.8394 7.08607C40.921 5.22055 40.7041 2.86506 39.0153 1.52703ZM35.9676 13.2704C35.8768 15.6435 34.8192 17.8541 33.8957 20.0433C32.6267 23.0464 31.5765 26.1373 30.7534 29.2919C30.2857 31.0768 29.6035 33.1976 27.8158 33.6591C26.0884 34.105 24.487 32.6886 23.275 31.3775C18.6146 26.3357 11.0955 16.796 9.92745 15.698C8.75938 14.6 9.36793 13.8063 9.64785 13.3791C9.96837 12.9777 10.3964 12.6756 10.882 12.5079C16.7567 9.87931 22.9995 8.16614 29.3931 7.42803C30.4644 7.23721 31.5641 7.27766 32.6184 7.5467C34.8782 8.27652 36.0596 10.8963 35.9676 13.2704Z" fill="#7C2982"/>
    </svg>
    